<svg version="1.1" viewBox="0.0 0.0 64.0 64.0" fill="none" stroke="none" stroke-linecap="square" stroke-miterlimit="10" xmlns:xlink="http://www.w3.org/1999/xlink" xmlns="http://www.w3.org/2000/svg"><clipPath id="g1bf28efb66f_0_0.0"><path d="m0 0l64.0 0l0 64.0l-64.0 0l0 -64.0z" clip-rule="nonzero"/></clipPath><g clip-path="url(#g1bf28efb66f_0_0.0)"><path fill="#000000" fill-opacity="0.0" d="m0 0l64.0 0l0 64.0l-64.0 0z" fill-rule="evenodd"/><g filter="url(#shadowFilter-g1bf28efb66f_0_0.1)"><use xlink:href="#g1bf28efb66f_0_0.1" transform="matrix(1.0 0.0 0.0 1.0 0.0 2.0)"/></g><defs><filter id="shadowFilter-g1bf28efb66f_0_0.1" filterUnits="userSpaceOnUse"><feGaussianBlur in="SourceAlpha" stdDeviation="2.0" result="blur"/><feComponentTransfer in="blur" color-interpolation-filters="sRGB"><feFuncR type="linear" slope="0" intercept="0.0"/><feFuncG type="linear" slope="0" intercept="0.0"/><feFuncB type="linear" slope="0" intercept="0.0"/><feFuncA type="linear" slope="0.5" intercept="0"/></feComponentTransfer></filter></defs><g id="g1bf28efb66f_0_0.1"><path fill="#ffab40" d="m2.7007873 32.0l0 0c0 -16.020607 13.121229 -29.007874 29.307087 -29.007874l0 0c7.772724 0 15.227097 3.056178 20.72324 8.49621c5.4961433 5.440032 8.583847 12.818297 8.583847 20.511665l0 0c0 16.020607 -13.121231 29.007874 -29.307087 29.007874l0 0c-16.185856 0 -29.307087 -12.987267 -29.307087 -29.007874z" fill-rule="evenodd"/><path fill="#000000" d="m29.50747 33.908123l-0.53125 2.15625l5.765625 0l-0.53125 -2.15625q-0.578125 -2.25 -1.15625 -4.890625q-0.5625 -2.640625 -1.140625 -5.0l-0.1875 0q-0.484375 2.359375 -1.0625 5.0q-0.578125 2.640625 -1.15625 4.890625zm-12.0 15.171875l9.515625 -31.203125l9.984375 0l9.5 31.203125l-8.734375 0l-1.546875 -6.625l-8.734375 0l-1.53125 6.625l-8.453125 0z" fill-rule="nonzero"/></g></g></svg>