<svg version="1.1" viewBox="0.0 0.0 64.0 64.0" fill="none" stroke="none" stroke-linecap="square" stroke-miterlimit="10" xmlns:xlink="http://www.w3.org/1999/xlink" xmlns="http://www.w3.org/2000/svg"><clipPath id="g1bf28efb66f_0_0.0"><path d="m0 0l64.0 0l0 64.0l-64.0 0l0 -64.0z" clip-rule="nonzero"/></clipPath><g clip-path="url(#g1bf28efb66f_0_0.0)"><path fill="#000000" fill-opacity="0.0" d="m0 0l64.0 0l0 64.0l-64.0 0z" fill-rule="evenodd"/><g filter="url(#shadowFilter-g1bf28efb66f_0_0.1)"><use xlink:href="#g1bf28efb66f_0_0.1" transform="matrix(1.0 0.0 0.0 1.0 0.0 2.0)"/></g><defs><filter id="shadowFilter-g1bf28efb66f_0_0.1" filterUnits="userSpaceOnUse"><feGaussianBlur in="SourceAlpha" stdDeviation="2.0" result="blur"/><feComponentTransfer in="blur" color-interpolation-filters="sRGB"><feFuncR type="linear" slope="0" intercept="0.0"/><feFuncG type="linear" slope="0" intercept="0.0"/><feFuncB type="linear" slope="0" intercept="0.0"/><feFuncA type="linear" slope="0.55" intercept="0"/></feComponentTransfer></filter></defs><g id="g1bf28efb66f_0_0.1"><path fill="#4285f4" d="m2.7007873 32.0l0 0c0 -16.020607 13.121229 -29.007874 29.307087 -29.007874l0 0c7.772724 0 15.227097 3.056178 20.72324 8.49621c5.4961433 5.440032 8.583847 12.818297 8.583847 20.511665l0 0c0 16.020607 -13.121231 29.007874 -29.307087 29.007874l0 0c-16.185856 0 -29.307087 -12.987267 -29.307087 -29.007874z" fill-rule="evenodd"/><path stroke="#4285f4" stroke-width="3.0" stroke-linejoin="round" stroke-linecap="butt" d="m2.7007873 32.0l0 0c0 -16.020607 13.121229 -29.007874 29.307087 -29.007874l0 0c7.772724 0 15.227097 3.056178 20.72324 8.49621c5.4961433 5.440032 8.583847 12.818297 8.583847 20.511665l0 0c0 16.020607 -13.121231 29.007874 -29.307087 29.007874l0 0c-16.185856 0 -29.307087 -12.987267 -29.307087 -29.007874z" fill-rule="evenodd"/></g><g filter="url(#shadowFilter-g1bf28efb66f_0_0.2)"><use xlink:href="#g1bf28efb66f_0_0.2" transform="matrix(1.0 0.0 0.0 1.0 0.0 2.0)"/></g><defs><filter id="shadowFilter-g1bf28efb66f_0_0.2" filterUnits="userSpaceOnUse"><feGaussianBlur in="SourceAlpha" stdDeviation="2.0" result="blur"/><feComponentTransfer in="blur" color-interpolation-filters="sRGB"><feFuncR type="linear" slope="0" intercept="0.0"/><feFuncG type="linear" slope="0" intercept="0.0"/><feFuncB type="linear" slope="0" intercept="0.0"/><feFuncA type="linear" slope="0.5" intercept="0"/></feComponentTransfer></filter></defs><g id="g1bf28efb66f_0_0.2"><path fill="#000000" fill-opacity="0.0" d="m0.005249344 0l64.0 0l0 67.874016l-64.0 0z" fill-rule="evenodd"/><path fill="#ffffff" d="m47.28589 33.634373q0 2.40625 -1.046875 4.171875q-1.03125 1.75 -2.84375 2.71875q-1.796875 0.953125 -3.734375 1.421875q-1.9375 0.453125 -4.21875 0.578125l0 0.390625l0 0.25q0 1.71875 0.625 2.515625q0.625 0.796875 2.34375 0.796875l0.109375 0l0 0.921875l-13.03125 0l0 -0.921875l0.109375 0q1.734375 0 2.34375 -0.796875q0.625 -0.796875 0.625 -2.515625l0 -0.25l0 -0.390625q-2.28125 -0.125 -4.21875 -0.578125q-1.9375 -0.46875 -3.75 -1.421875q-1.796875 -0.96875 -2.84375 -2.71875q-1.03125 -1.765625 -1.03125 -4.171875q0 -2.15625 1.109375 -3.875q1.125 -1.71875 2.90625 -2.71875q1.78125 -1.0 3.796875 -1.5q2.03125 -0.5 4.03125 -0.5l0 -0.15625q0 -3.4375 -2.875 -3.4375l-0.09375 0l0 -0.96875l12.8125 0l0 0.96875l-0.078125 0q-2.890625 0 -2.890625 3.265625l0 0.328125q2.0 0 4.015625 0.53125q2.03125 0.515625 3.8125 1.5q1.78125 0.96875 2.890625 2.6875q1.125 1.71875 1.125 3.875zm-7.046875 0.890625q0 -8.328125 -4.796875 -8.328125l0 15.203125q1.71875 0 2.859375 -1.140625q1.140625 -1.140625 1.53125 -2.59375q0.40625 -1.46875 0.40625 -3.140625zm-11.671875 6.875l0 -15.203125q-4.796875 0 -4.796875 8.328125q0 2.75 1.140625 4.8125q1.140625 2.0625 3.65625 2.0625z" fill-rule="nonzero"/></g></g></svg>