<svg version="1.1" viewBox="0.0 0.0 64.0 64.0" fill="none" stroke="none" stroke-linecap="square" stroke-miterlimit="10" xmlns:xlink="http://www.w3.org/1999/xlink" xmlns="http://www.w3.org/2000/svg"><clipPath id="g1bf28efb66f_0_0.0"><path d="m0 0l64.0 0l0 64.0l-64.0 0l0 -64.0z" clip-rule="nonzero"/></clipPath><g clip-path="url(#g1bf28efb66f_0_0.0)"><path fill="#000000" fill-opacity="0.0" d="m0 0l64.0 0l0 64.0l-64.0 0z" fill-rule="evenodd"/><g filter="url(#shadowFilter-g1bf28efb66f_0_0.1)"><use xlink:href="#g1bf28efb66f_0_0.1" transform="matrix(1.0 0.0 0.0 1.0 0.0 2.0)"/></g><defs><filter id="shadowFilter-g1bf28efb66f_0_0.1" filterUnits="userSpaceOnUse"><feGaussianBlur in="SourceAlpha" stdDeviation="2.0" result="blur"/><feComponentTransfer in="blur" color-interpolation-filters="sRGB"><feFuncR type="linear" slope="0" intercept="0.0"/><feFuncG type="linear" slope="0" intercept="0.0"/><feFuncB type="linear" slope="0" intercept="0.0"/><feFuncA type="linear" slope="0.55" intercept="0"/></feComponentTransfer></filter></defs><g id="g1bf28efb66f_0_0.1"><path fill="#ffab40" d="m2.7007873 32.0l0 0c0 -16.020607 13.121229 -29.007874 29.307087 -29.007874l0 0c7.772724 0 15.227097 3.056178 20.72324 8.49621c5.4961433 5.440032 8.583847 12.818297 8.583847 20.511665l0 0c0 16.020607 -13.121231 29.007874 -29.307087 29.007874l0 0c-16.185856 0 -29.307087 -12.987267 -29.307087 -29.007874z" fill-rule="evenodd"/><path fill="#000000" d="m46.28131 17.298748l0 8.59375l-0.84375 0q-0.75 -2.96875 -1.671875 -4.265625q-0.90625 -1.3125 -2.5 -2.078125q-0.890625 -0.421875 -3.109375 -0.421875l-2.375 0l0 24.515625q0 2.4375 0.265625 3.046875q0.28125 0.609375 1.0625 1.0625q0.78125 0.453125 2.140625 0.453125l1.0625 0l0 0.875l-16.640625 0l0 -0.875l1.046875 0q1.390625 0 2.234375 -0.484375q0.609375 -0.328125 0.953125 -1.125q0.265625 -0.5625 0.265625 -2.953125l0 -24.515625l-2.296875 0q-3.21875 0 -4.671875 1.359375q-2.03125 1.890625 -2.578125 5.40625l-0.890625 0l0 -8.59375l28.546875 0z" fill-rule="nonzero"/></g></g></svg>